<svg width="70" height="70" viewBox="0 0 90 90" fill="none" xmlns="http://www.w3.org/2000/svg"><g clip-path="url(#a)" fill="#fff"><path d="M60.184 47.699a21.824 21.824 0 0 0-18.45-10.09 21.822 21.822 0 0 0-18.45 10.09l-9.76 15.223a13.777 13.777 0 0 0-2.16 8.437 13.78 13.78 0 0 0 3.294 8.064 13.783 13.783 0 0 0 7.454 4.508c2.926.669 5.925.383 8.673-.825l.184-.082a27.267 27.267 0 0 1 21.712.082 13.794 13.794 0 0 0 8.672.825 13.78 13.78 0 0 0 7.454-4.507 13.775 13.775 0 0 0 3.296-8.064 13.778 13.778 0 0 0-2.16-8.438l-9.758-15.223ZM16.153 47.679c2.904-1.116 5.109-3.455 6.21-6.588 1.049-2.981.963-6.347-.242-9.479-1.206-3.128-3.399-5.683-6.176-7.193-2.917-1.585-6.121-1.843-9.02-.726C1.096 25.935-1.58 33.14.962 39.759c2.031 5.268 6.769 8.593 11.558 8.593 1.223 0 2.45-.217 3.634-.673ZM35.088 35.752c7.29 0 13.22-6.757 13.22-15.062 0-8.307-5.93-15.065-13.22-15.065-7.289 0-13.218 6.758-13.218 15.065 0 8.305 5.93 15.062 13.218 15.062ZM57.92 39.452c1.121.372 2.265.55 3.404.55 5.316 0 10.497-3.87 12.474-9.816 1.138-3.423 1.064-7.042-.21-10.19-1.334-3.296-3.806-5.688-6.96-6.737-3.155-1.048-6.567-.611-9.608 1.23-2.906 1.76-5.132 4.614-6.269 8.037-2.4 7.22.816 14.814 7.168 16.926ZM85.76 37.694l-.003-.002c-5.027-3.713-12.545-2.104-16.76 3.59-4.211 5.696-3.553 13.354 1.466 17.07 1.831 1.357 3.994 2.005 6.208 2.005 3.858 0 7.872-1.97 10.556-5.59 4.21-5.697 3.552-13.355-1.468-17.073Z"/></g><defs><clipPath id="a"><path fill="#fff" d="M0 0h90v90H0z"/></clipPath></defs></svg>