<svg width="70" height="70" viewBox="0 0 90 90" fill="none" xmlns="http://www.w3.org/2000/svg"><g clip-path="url(#a)"><path d="M74.032 31.936c8.819 0 15.968-7.15 15.968-15.968C90 7.149 82.85 0 74.032 0c-8.819 0-15.968 7.15-15.968 15.968 0 8.819 7.15 15.968 15.968 15.968Z" fill="#824641"/><path d="M74.032 26.13c5.612 0 10.161-4.55 10.161-10.162 0-5.612-4.55-10.161-10.16-10.161-5.613 0-10.162 4.55-10.162 10.161 0 5.612 4.55 10.161 10.161 10.161Z" fill="#643C3C"/><path d="M15.968 31.936c8.819 0 15.968-7.15 15.968-15.968C31.936 7.149 24.786 0 15.968 0 7.149 0 0 7.15 0 15.968c0 8.819 7.15 15.968 15.968 15.968Z" fill="#824641"/><path d="M15.968 26.13c5.612 0 10.161-4.55 10.161-10.162 0-5.612-4.55-10.161-10.161-10.161-5.612 0-10.161 4.55-10.161 10.161 0 5.612 4.55 10.161 10.161 10.161Z" fill="#643C3C"/><path d="M45 90c23.249 0 42.096-18.198 42.096-40.646S68.25 8.708 45 8.708c-23.249 0-42.096 18.198-42.096 40.646S21.75 90 45 90Z" fill="#965A50"/><path d="M45 84.194c6.013 0 10.887-3.9 10.887-8.71 0-4.81-4.874-8.71-10.887-8.71-6.013 0-10.887 3.9-10.887 8.71 0 4.81 4.874 8.71 10.887 8.71Z" fill="#EBC9A0"/><path d="M15.968 47.903c0-16.133 7.947-30.275 19.879-38.218C17 13.72 2.903 29.944 2.903 49.355c0 21.822 17.814 39.623 40.166 40.598-15.843-6.46-27.101-22.845-27.101-42.05Z" fill="#824641"/><path d="M27.58 53.71a4.355 4.355 0 0 1-4.354-4.355v-1.452a4.355 4.355 0 0 1 8.71 0v1.452a4.355 4.355 0 0 1-4.355 4.355Z" fill="#4B3F4E"/><path d="M27.58 43.548v5.081a2.177 2.177 0 1 0 4.355 0v-.726a4.355 4.355 0 0 0-4.354-4.355Z" fill="#5D5360"/><path d="M27.58 47.904a1.452 1.452 0 1 0 0-2.904 1.452 1.452 0 0 0 0 2.904Z" fill="#fff"/><path d="M62.42 53.71a4.355 4.355 0 0 1-4.355-4.355v-1.452a4.355 4.355 0 0 1 8.71 0v1.452a4.355 4.355 0 0 1-4.356 4.355Z" fill="#4B3F4E"/><path d="M62.42 43.548v5.081a2.177 2.177 0 0 0 4.354 0v-.726a4.355 4.355 0 0 0-4.355-4.355Z" fill="#5D5360"/><path d="M62.42 47.904a1.452 1.452 0 1 0 0-2.904 1.452 1.452 0 0 0 0 2.904Z" fill="#fff"/><path d="M50.645 65.323c-2.144 0-4.111.498-5.645 1.327-1.534-.83-3.5-1.328-5.645-1.328-4.9 0-8.871 2.6-8.871 5.807 0 3.207 3.972 5.806 8.87 5.806 2.145 0 4.112-.498 5.646-1.327 1.534.83 3.5 1.327 5.645 1.327 4.9 0 8.871-2.6 8.871-5.806 0-3.207-3.972-5.806-8.87-5.806Z" fill="#F5DCB4"/><path d="M52.258 65.323c0 2.405-3.25 5.806-7.258 5.806-4.009 0-7.258-3.401-7.258-5.806 0-2.405 3.25-4.355 7.258-4.355s7.258 1.95 7.258 4.355Z" fill="#5D5360"/><path d="M59.488 70.844a1.444 1.444 0 0 0-1.682-1.13 1.463 1.463 0 0 0-1.17 1.677 2.407 2.407 0 0 1-.656 1.946c-.707.733-2.701 1.857-8.08 1.16-.482-.063-.965-.11-1.449-.14v-3.913c0-.801-.65-.767-1.451-.767-.802 0-1.452-.034-1.452.767v3.912c-.484.031-.967.078-1.448.14-5.38.698-7.374-.426-8.08-1.16-.826-.853-.664-1.901-.662-1.922a1.451 1.451 0 1 0-2.846-.57c-.183.916-.104 2.881 1.355 4.443 1.45 1.551 3.844 2.331 7.141 2.331 1.062 0 2.219-.08 3.466-.243a19.56 19.56 0 0 1 5.051 0c5.12.667 8.69-.037 10.607-2.088 1.46-1.562 1.539-3.527 1.356-4.443Z" fill="#D4AF91"/><path d="M47.903 69.677c-4.008 0-7.258-3.887-7.258-6.636 0-.463.122-.903.295-1.329-1.93.783-3.198 2.108-3.198 3.61 0 2.406 3.25 5.807 7.258 5.807 1.846 0 3.513-.736 4.794-1.75a6.41 6.41 0 0 1-1.89.298Z" fill="#4B3F4E"/></g><defs><clipPath id="a"><path fill="#fff" d="M0 0h90v90H0z"/></clipPath></defs></svg>