<svg width="70" height="70" viewBox="0 0 90 90" fill="none" xmlns="http://www.w3.org/2000/svg"><g clip-path="url(#a)"><path d="M78.114.658c1.903-1.547 4.749-.192 4.749 2.26v39.025L50.825 23.012 78.113.658Z" fill="#FFC850"/><path d="M79.95 40.222 60.443 28.695l16.253-18.323c1.137-1.281 3.254-.478 3.254 1.235v28.615Z" fill="#EBAF4B"/><path d="M11.886.658C9.983-.89 7.136.466 7.136 2.918v39.025l32.039-18.931L11.886.658Z" fill="#FFC850"/><path d="m10.05 40.222 19.506-11.527-16.253-18.323c-1.136-1.281-3.254-.478-3.254 1.235v28.615Z" fill="#EBAF4B"/><path d="M45 90c22.52 0 40.776-17.278 40.776-38.591 0-21.313-18.256-38.591-40.776-38.591-22.52 0-40.776 17.278-40.776 38.591C4.224 72.722 22.48 90 45 90Z" fill="#FFDC64"/><path d="M50.825 75.437v2.913a5.825 5.825 0 1 1-11.65 0v-2.913L45 72.525l5.825 2.912Z" fill="#FF8087"/><path d="M48.215 60.444h-6.43c-1.39 0-2.158 1.61-1.285 2.69l3.215 3.979a1.652 1.652 0 0 0 2.57 0l3.215-3.98c.873-1.079.104-2.689-1.285-2.689Z" fill="#5D5360"/><path d="M84.317 76.894a1.45 1.45 0 0 1-.67-.165c-8.805-4.578-22.586-7.299-22.725-7.326a1.456 1.456 0 0 1 .557-2.858c.58.113 14.33 2.826 23.512 7.6a1.457 1.457 0 0 1-.674 2.749ZM87.232 66.7c-.125 0-.252-.016-.379-.05-8.162-2.194-23.004-1.778-23.15-1.771a1.448 1.448 0 0 1-1.5-1.412 1.456 1.456 0 0 1 1.411-1.5c.626-.02 15.423-.435 23.996 1.87a1.457 1.457 0 0 1-.378 2.863Z" fill="#E1A546"/><path d="M55.194 87.088c-22.52 0-40.776-17.278-40.776-38.591 0-15.651 9.85-29.116 23.998-35.171-19.388 2.98-34.192 18.892-34.192 38.083C4.224 72.722 22.48 90 45 90a42.56 42.56 0 0 0 16.778-3.42 43.3 43.3 0 0 1-6.584.508Z" fill="#FFC850"/><path d="M5.682 76.894a1.455 1.455 0 0 1-.673-2.749c9.182-4.774 22.93-7.487 23.511-7.6a1.456 1.456 0 0 1 .558 2.858c-.14.027-13.92 2.748-22.725 7.326a1.45 1.45 0 0 1-.671.165ZM2.767 66.7a1.457 1.457 0 0 1-.377-2.863c8.574-2.306 23.368-1.887 23.995-1.87a1.456 1.456 0 0 1 1.412 1.5 1.469 1.469 0 0 1-1.5 1.412c-.149-.005-14.993-.424-23.15 1.771-.127.034-.255.05-.38.05Z" fill="#E1A546"/><path d="M28.253 56.506c-2.804 0-5.097-2.294-5.097-5.097v-2.913c0-2.803 2.293-5.096 5.097-5.096 2.803 0 5.097 2.293 5.097 5.096v2.913c0 2.803-2.294 5.097-5.097 5.097Z" fill="#4B3F4E"/><path d="M28.253 43.4c-.25 0-.488.038-.728.074v7.207a2.912 2.912 0 1 0 5.825 0v-2.184c0-2.804-2.294-5.097-5.097-5.097Z" fill="#5D5360"/><path d="M28.253 49.225a2.184 2.184 0 1 0 0-4.369 2.184 2.184 0 0 0 0 4.37Z" fill="#fff"/><path d="M61.747 56.506c-2.804 0-5.097-2.294-5.097-5.097v-2.913c0-2.803 2.293-5.096 5.097-5.096 2.803 0 5.097 2.293 5.097 5.096v2.913c0 2.803-2.294 5.097-5.097 5.097Z" fill="#4B3F4E"/><path d="M61.747 43.4c-.25 0-.489.038-.728.074v7.207a2.912 2.912 0 1 0 5.825 0v-2.184c0-2.804-2.294-5.097-5.097-5.097Z" fill="#5D5360"/><path d="M61.746 49.225a2.184 2.184 0 1 0 0-4.369 2.184 2.184 0 0 0 0 4.37Z" fill="#fff"/><path d="m46.126 67.175-3.215-6.366c-.059-.116-.092-.242-.136-.365h-.99c-1.39 0-2.158 1.61-1.285 2.69l3.215 3.978c.624.772 1.755.789 2.437.104-.008-.015-.018-.025-.026-.041Z" fill="#4B3F4E"/><path d="m45 72.525-5.825 2.912v2.913c0 .462.067.906.169 1.337a13.123 13.123 0 0 0 4.2-1.257v1.376a1.456 1.456 0 0 0 2.912 0V78.43a13.12 13.12 0 0 0 4.2 1.257c.102-.431.169-.875.169-1.337v-2.913L45 72.525Z" fill="#E6646E"/><path d="M52.281 76.894a10.13 10.13 0 0 1-5.74-1.771 2.79 2.79 0 0 0-3.083 0 10.174 10.174 0 0 1-12.537-.84 1.457 1.457 0 0 1 1.945-2.169c2.446 2.195 6.273 2.434 8.948.604a5.686 5.686 0 0 1 6.37 0c2.677 1.83 6.505 1.59 8.95-.603a1.456 1.456 0 1 1 1.944 2.169 10.172 10.172 0 0 1-6.797 2.61Z" fill="#EBAF4B"/></g><defs><clipPath id="a"><path fill="#fff" d="M0 0h90v90H0z"/></clipPath></defs></svg>