<svg width="70" height="70" viewBox="0 0 90 90" fill="none" xmlns="http://www.w3.org/2000/svg"><path d="M76.935 7.984H62.42C57.157 10.07 55.991 6.532 45 6.532c-10.99 0-12.157 3.538-17.42 1.452H13.066l-1.936 36.472c1.21 14.334 10.1 22.137 17.117 24.98h33.508c7.016-2.843 15.907-10.646 17.117-24.98L76.935 7.984Z" fill="#F5DCB4"/><path d="M62.42 7.984c16.344 4.892 7.446 30.12 17.97 41.026 1.51 1.566 4.18.87 4.81-1.212.834-2.751 1.666-7.103 1.534-13.322C86.552 25.948 90 25.403 90 25.403S85.645 5.081 72.58 5.081c-4.354 0-10.16 2.903-10.16 2.903Z" fill="#965A50"/><path d="M29.758 45.726c-2.794 0-5.08-2.286-5.08-5.08v-2.904c0-2.794 2.286-5.08 5.08-5.08s5.08 2.286 5.08 5.08v2.903c0 2.795-2.286 5.08-5.08 5.08Z" fill="#4B3F4E"/><path d="M29.758 32.661c-.248 0-.487.04-.726.074v7.184a2.903 2.903 0 0 0 5.807 0v-2.177c0-2.794-2.287-5.08-5.081-5.08Z" fill="#5D5360"/><path d="M29.758 38.468a2.177 2.177 0 1 0 0-4.355 2.177 2.177 0 0 0 0 4.355Z" fill="#fff"/><path d="M60.242 45.726c-2.794 0-5.08-2.286-5.08-5.08v-2.904c0-2.794 2.286-5.08 5.08-5.08s5.08 2.286 5.08 5.08v2.903c0 2.795-2.286 5.08-5.08 5.08Z" fill="#4B3F4E"/><path d="M60.242 32.661c-.248 0-.487.04-.726.074v7.184a2.903 2.903 0 0 0 5.807 0v-2.177c0-2.794-2.287-5.08-5.081-5.08Z" fill="#5D5360"/><path d="M60.242 38.468a2.177 2.177 0 1 0 0-4.355 2.177 2.177 0 0 0 0 4.355Z" fill="#fff"/><path d="M80.39 49.01c1.51 1.566 4.18.87 4.81-1.212.479-1.578.95-3.702 1.245-6.383-2.853-1.422-5.29-5.96-6.788-13.653C76.935 13.79 73.125 5.988 62.42 7.984c16.345 4.892 7.447 30.121 17.971 41.026Z" fill="#824641"/><path d="M28.246 69.436h6.88S23.045 61.33 21.05 46.996c-3.883-27.887 3.508-36.23 9.9-38.359-1.012.034-2.064-.136-3.368-.653H13.065l-1.936 36.472c1.21 14.334 10.1 22.137 17.117 24.98Z" fill="#E7C9A5"/><path d="M27.58 7.984c-16.344 4.892-7.446 30.12-17.97 41.026-1.51 1.566-4.18.87-4.81-1.212-.834-2.751-1.666-7.103-1.534-13.322C3.448 25.948 0 25.403 0 25.403S4.355 5.081 17.42 5.081c4.354 0 10.16 2.903 10.16 2.903Z" fill="#965A50"/><path d="M27.095 7.753c-1.473-.684-6.067-2.672-9.676-2.672C4.355 5.08 0 25.403 0 25.403s3.448.545 3.266 9.073c-.002.114.001.216 0 .329C11.618 3.114 24.454 6.64 27.094 7.753Z" fill="#824641"/><path d="M45 82.016c8.819 0 15.968-5.199 15.968-11.612S53.818 58.792 45 58.792c-8.819 0-15.968 5.199-15.968 11.612S36.182 82.016 45 82.016Z" fill="#BC8E78"/><path d="M37.742 70.403v7.258a7.258 7.258 0 1 0 14.516 0v-7.258H37.742Z" fill="#FF8087"/><path d="M37.742 76.073c2.099-.263 4.08-.902 5.806-1.868v2.005a1.452 1.452 0 0 0 2.904 0v-2.023c1.71.976 3.696 1.621 5.806 1.886v-5.67H37.742v5.67Z" fill="#E6646E"/><path d="M54.435 57.339h-18.87c-6.013 0-10.887 3.574-10.887 7.984 0 4.409 4.874 7.983 10.887 7.983 3.027 0 5.762-.908 7.733-2.372.5-.37 1.1-.556 1.701-.556.602 0 1.204.185 1.703.556 1.971 1.464 4.706 2.372 7.733 2.372 6.013 0 10.888-3.574 10.888-7.983 0-4.41-4.875-7.984-10.888-7.984Z" fill="#D4AF91"/><path d="M45 51.532c4.81 0 8.71 2.6 8.71 5.807 0 3.092-3.66 4.72-6.303 5.925a5.797 5.797 0 0 1-4.815 0c-2.642-1.204-6.302-2.833-6.302-5.925 0-3.207 3.9-5.807 8.71-5.807Z" fill="#5D5360"/><path d="M40.6 55.751c-.203-1.827 1.084-3.78 1.084-3.78-3.165.87-5.394 2.944-5.394 5.368 0 3.092 3.66 4.72 6.303 5.925a5.798 5.798 0 0 0 4.815 0 53.63 53.63 0 0 0 1.799-.848c-3.572-.632-8.199-2.99-8.607-6.665Z" fill="#4B3F4E"/></svg>