<svg width="70" height="70" viewBox="0 0 90 90" fill="none" xmlns="http://www.w3.org/2000/svg"><path d="M77.325.733c1.954-.747 4.053.728 3.963 2.817-.733 16.84-6.53 31.357-6.53 31.357L52.863 19.544C61.593 9.03 72.156 2.708 77.325.733Z" fill="#D26437"/><path d="M60.161 24.665c5.69-9.266 14.272-18.113 16.99-19.692 1.1-.64 2.068.926 1.821 2.99-1.312 10.982-3.692 20.847-5.158 26.282l-13.652-9.58Z" fill="#B44632"/><path d="M12.675.733c-1.954-.747-4.053.728-3.963 2.817.733 16.84 6.53 31.357 6.53 31.357l21.895-15.363C28.407 9.03 17.844 2.708 12.675.733Z" fill="#D26437"/><path d="M29.838 24.665C24.148 15.4 15.567 6.552 12.85 4.973c-1.102-.64-2.069.926-1.822 2.99 1.312 10.982 3.692 20.847 5.158 26.282l13.652-9.58Z" fill="#B44632"/><path d="M45 89.464c4.81 0 8.71-2.6 8.71-5.806 0-3.207-3.9-5.806-8.71-5.806-4.81 0-8.71 2.6-8.71 5.806s3.9 5.806 8.71 5.806ZM34.839 82.206C24.677 76.399 7.843 70.078 7.843 70.078L9.46 65.23c-.681-.323-5.346-.384-9.459 1.007l4.355-7.258h30.484v23.226ZM55.161 82.206c10.162-5.807 26.995-12.128 26.995-12.128l-1.615-4.847c.681-.323 5.346-.384 9.459 1.007l-4.355-7.258H55.161v23.226Z" fill="#EBC9A0"/><path d="M45 16.883c21.16 0 39.325 21.201 44.935 49.027l.065.328S79.294 55.17 67.681 61.067c-4.306 2.187-6.35 6.991-6.35 12.242 0 8.705-6.979 13.522-15.246 10.176a2.874 2.874 0 0 0-2.17 0c-8.267 3.346-15.246-1.47-15.246-10.176 0-5.25-2.044-10.055-6.35-12.242C10.705 55.169 0 66.238 0 66.238l.065-.328C5.675 38.084 23.84 16.883 45 16.883Z" fill="#EB874B"/><path d="M29.758 57.528c-2.794 0-5.08-2.286-5.08-5.08v-2.904c0-2.794 2.286-5.08 5.08-5.08 2.795 0 5.08 2.286 5.08 5.08v2.904c0 2.794-2.285 5.08-5.08 5.08Z" fill="#4B3F4E"/><path d="M29.758 44.464c-.248 0-.487.039-.726.074v7.184a2.903 2.903 0 0 0 5.807 0v-2.178c0-2.794-2.287-5.08-5.081-5.08Z" fill="#5D5360"/><path d="M29.758 50.271a2.177 2.177 0 1 0 0-4.355 2.177 2.177 0 0 0 0 4.355Z" fill="#fff"/><path d="M60.242 57.528c-2.794 0-5.08-2.286-5.08-5.08v-2.904c0-2.794 2.286-5.08 5.08-5.08s5.08 2.286 5.08 5.08v2.904c0 2.794-2.286 5.08-5.08 5.08Z" fill="#4B3F4E"/><path d="M60.242 44.464c-.248 0-.487.039-.726.074v7.184a2.903 2.903 0 0 0 5.807 0v-2.178c0-2.794-2.287-5.08-5.081-5.08Z" fill="#5D5360"/><path d="M60.242 50.271a2.177 2.177 0 1 0 0-4.355 2.177 2.177 0 0 0 0 4.355Z" fill="#fff"/><path d="M43.548 83.619c.126-.047.252-.096.378-.146a2.905 2.905 0 0 1 2.148 0c.126.05.252.099.378.146v-5.768h-2.903v5.768Z" fill="#D26437"/><path d="M44.916 69.141c3.253 0 5.89 2.156 5.89 4.815 0 2.564-2.475 3.914-4.262 4.913a3.272 3.272 0 0 1-3.256 0c-1.787-.999-4.262-2.349-4.262-4.913 0-2.66 2.637-4.815 5.89-4.815Z" fill="#5D5360"/><path d="M46.359 78.744c-1.787-1.283-4.262-3.02-4.262-6.316 0-1.08.287-2.081.75-2.965-2.229.686-3.821 2.431-3.821 4.493 0 2.564 2.475 3.914 4.262 4.912a3.27 3.27 0 0 0 3.281-.014c-.07-.042-.142-.06-.21-.11Z" fill="#4B3F4E"/><path d="m45 16.883-2.823.141C22.24 18.811 5.424 39.331.065 65.91L0 66.238s8.64-8.924 18.815-6.466C20.087 23.619 42.637 16.883 45 16.883Z" fill="#D26437"/></svg>