<svg width="70" height="70" viewBox="0 0 90 90" fill="none" xmlns="http://www.w3.org/2000/svg"><g clip-path="url(#a)"><path d="M45 2.238c.508 0 1.015-.135 1.472-.404C47.878 1.007 50.29 0 53.71 0c6.56 0 11.614 2.903 11.614 2.903l-2.904 2.903c3.12.833 4.9 1.331 8.327 3.127 12.053 6.315 17.802 20.1 17.802 20.1h-5.806C90 40.644 90 56.612 90 56.612l-4.355-1.452s0 13.065-5.806 21.774l-4.355-2.903S71.129 81.29 63.87 85.645l-2.904-2.903S53.71 88.548 45 90c-8.71-1.452-15.968-7.258-15.968-7.258l-2.903 2.903C18.87 81.29 14.516 74.032 14.516 74.032l-4.355 2.903c-5.806-8.71-5.806-21.774-5.806-21.774L0 56.613s0-15.968 7.258-27.58H1.452S7.2 15.247 19.254 8.932c3.427-1.796 5.206-2.294 8.327-3.126l-2.904-2.904S29.73 0 36.291 0c3.418 0 5.83 1.007 7.237 1.835.457.269.964.403 1.471.404" fill="#D26437"/><path d="M32.91 16.01s4.197-8.57 11.26-13.904a2.918 2.918 0 0 1-.643-.272C42.122 1.007 39.71 0 36.291 0c-6.56 0-11.614 2.903-11.614 2.903l2.904 2.903c-3.12.833-4.9 1.331-8.327 3.127-12.053 6.315-17.802 20.1-17.802 20.1h5.806C0 40.644 0 56.612 0 56.612l4.355-1.452s0 13.065 5.806 21.774l4.355-2.903s4.355 7.258 11.613 11.613l2.903-2.903S36.29 88.548 45 90c0 0-10.524-4.355-12.09-73.99Z" fill="#B44632"/><path d="M72.11 8.809c3.437-.667 6.585 2.125 6.253 5.61-.412 4.325-3.59 11.952-7.945 16.443L56.431 16.784c5.36-4.254 12.017-7.265 15.68-7.975Z" fill="#EBAF4B"/><path d="M60.224 20.601c4.457-3.407 11.046-7.889 12.871-8.072 2.097-.21 3.405 2.682 2.585 5.805-.712 2.71-3.427 7.683-6.13 11.653l-9.326-9.386Z" fill="#E18C46"/><path d="M17.89 8.809c-3.437-.667-6.584 2.125-6.253 5.61.412 4.325 3.59 11.952 7.945 16.443l13.987-14.078c-5.36-4.254-12.017-7.265-15.68-7.975Z" fill="#EBAF4B"/><path d="M29.776 20.601c-4.457-3.407-11.046-7.889-12.87-8.072-2.098-.21-3.406 2.682-2.586 5.805.712 2.71 3.427 7.683 6.13 11.653l9.326-9.386Z" fill="#E18C46"/><path d="M62.42 17.42C56.69 12.962 45 20.321 45 20.321s-11.69-7.359-17.42-2.903c-13.064 10.162-15.967 39.194-14.515 45 1.056 4.225 10.16 11.613 20.322 14.516h23.226c10.161-2.903 19.266-10.29 20.323-14.516 1.451-5.806-1.452-34.838-14.517-45Z" fill="#FFC850"/><path d="M22.014 70.983C20.9 64.021 23.536 33.13 32.91 16.01c-1.971-.095-3.85.258-5.33 1.41-13.064 10.16-15.967 39.193-14.515 45 .635 2.543 4.199 6.229 9.143 9.396-.074-.283-.151-.567-.194-.833Z" fill="#EBAF4B"/><path d="M76.935 55.143c-1.056 4.224-10.16 11.613-20.322 14.516H33.387c-10.161-2.903-19.266-10.292-20.322-14.516a8.948 8.948 0 0 1-.167-.947c-.288 3.777-.202 6.75.167 8.223 1.056 4.225 10.16 11.613 20.322 14.516h23.226c10.161-2.903 19.266-10.29 20.322-14.516.369-1.473.455-4.446.167-8.223-.047.355-.1.683-.167.947Z" fill="#FAEBC8"/><path d="M32.952 74.579c.754 4.629 4.77 8.163 9.613 8.163h4.87c4.822 0 8.826-3.505 9.603-8.106l-12.037-2.055-12.049 1.998Z" fill="#F5DCB4"/><path d="M52.984 60.968c-3.367 0-6.314 1.36-7.984 3.402-1.67-2.041-4.617-3.402-7.984-3.402-5.21 0-9.435 3.25-9.435 7.258s4.224 7.258 9.435 7.258c3.367 0 6.314-1.361 7.984-3.403 1.67 2.042 4.617 3.403 7.984 3.403 5.21 0 9.435-3.25 9.435-7.258 0-4.009-4.224-7.258-9.435-7.258Z" fill="#FAEBC8"/><path d="M52.386 76.888c-2.536 0-4.925-.84-6.908-2.43a.762.762 0 0 0-.957 0 10.929 10.929 0 0 1-6.907 2.43c-6.126 0-11.11-5.02-11.11-11.19a1.451 1.451 0 1 1 2.903 0c0 4.57 3.681 8.287 8.207 8.287 1.869 0 3.63-.62 5.091-1.792a3.647 3.647 0 0 1 4.589 0 8.06 8.06 0 0 0 5.092 1.792c4.526 0 8.208-3.717 8.208-8.288a1.451 1.451 0 1 1 2.903 0c0 6.171-4.984 11.191-11.111 11.191Z" fill="#D4AF91"/><path d="m37.168 63.504 3.083 2.571a7.416 7.416 0 0 0 9.498 0l3.083-2.57c1.366-1.14.57-3.363-1.209-3.363H38.377c-1.779 0-2.575 2.223-1.209 3.362Z" fill="#5D5360"/><path d="M45 37.742c-.802 0-1.452-.65-1.452-1.452V24.44a1.451 1.451 0 1 1 2.904 0v11.85c0 .802-.65 1.452-1.452 1.452Z" fill="#FFDC64"/><path d="M30.484 52.258a4.355 4.355 0 0 1-4.355-4.355v-1.451a4.355 4.355 0 0 1 8.71 0v1.451a4.355 4.355 0 0 1-4.355 4.355Z" fill="#4B3F4E"/><path d="M30.484 42.097v5.08a2.177 2.177 0 0 0 4.355 0v-.725a4.355 4.355 0 0 0-4.355-4.355Z" fill="#5D5360"/><path d="M30.484 46.452a1.452 1.452 0 1 0 0-2.904 1.452 1.452 0 0 0 0 2.904Z" fill="#fff"/><path d="M59.516 52.258a4.355 4.355 0 0 1-4.355-4.355v-1.451a4.355 4.355 0 0 1 8.71 0v1.451a4.355 4.355 0 0 1-4.355 4.355Z" fill="#4B3F4E"/><path d="M59.516 42.097v5.08a2.177 2.177 0 1 0 4.355 0v-.725a4.355 4.355 0 0 0-4.355-4.355Z" fill="#5D5360"/><path d="M59.516 46.452a1.452 1.452 0 1 0 0-2.904 1.452 1.452 0 0 0 0 2.904Z" fill="#fff"/><path d="m45.87 65.853-3.083-3.546c-.514-.59-.72-1.394-.685-2.165h-3.725c-1.779 0-2.575 2.223-1.21 3.362l3.084 2.571a7.407 7.407 0 0 0 7.364 1.233 7.385 7.385 0 0 1-1.744-1.455Z" fill="#4B3F4E"/><path d="M13.065 55.143a8.946 8.946 0 0 1-.167-.947c-.288 3.777-.202 6.75.167 8.223.636 2.544 4.199 6.23 9.143 9.397-.074-.283-.151-.567-.194-.833-.221-1.383-.292-3.72-.194-6.695-4.741-3.11-8.136-6.67-8.755-9.145Z" fill="#F5DCB4"/></g><defs><clipPath id="a"><path fill="#fff" d="M0 0h90v90H0z"/></clipPath></defs></svg>