<svg width="70" height="70" viewBox="0 0 90 90" fill="none" xmlns="http://www.w3.org/2000/svg"><path d="M11.612 50.806c6.413 0 11.612-5.199 11.612-11.612s-5.199-11.612-11.612-11.612S0 32.78 0 39.194s5.199 11.612 11.612 11.612Z" fill="#965A50"/><path d="M11.612 46.452a7.258 7.258 0 1 0 0-14.516 7.258 7.258 0 0 0 0 14.516Z" fill="#EBC9A0"/><path d="M78.388 50.806C84.8 50.806 90 45.607 90 39.194S84.8 27.582 78.388 27.582 66.776 32.78 66.776 39.194s5.199 11.612 11.612 11.612Z" fill="#965A50"/><path d="M78.388 46.452a7.258 7.258 0 1 0 0-14.516 7.258 7.258 0 0 0 0 14.516Z" fill="#EBC9A0"/><path d="M77.799 46.063c-1.47-2.537-2.315-5.388-2.315-8.321 0-12.722-7.798-23.613-18.871-28.181V4.355l-7.258 2.903-1.452-5.806c-3.828 1.276-7.094 3.954-9.554 6.556-13.633 3.038-23.833 15.186-23.833 29.734 0 2.933-.844 5.784-2.315 8.322-2.236 3.858-3.491 8.17-3.491 12.726 0 16.435 16.247 29.758 36.29 29.758S81.29 75.225 81.29 58.79c0-4.556-1.256-8.869-3.491-12.727Z" fill="#AF6E5A"/><path d="M24.677 63.992a33.254 33.254 0 0 1 3.492-14.848c1.47-2.96 2.315-6.287 2.315-9.709 0-14.771 7.729-27.414 18.72-32.783l-1.3-5.2c-3.83 1.276-7.095 3.954-9.556 6.556-13.633 3.038-23.832 15.186-23.832 29.734 0 2.933-.844 5.784-2.315 8.322-2.236 3.858-3.491 8.17-3.491 12.726 0 13.266 10.587 24.499 25.21 28.34-5.745-6.142-9.243-14.248-9.243-23.138Z" fill="#965A50"/><path d="M45 82.742c12.026 0 21.774-7.799 21.774-17.42 0-1.995-.424-3.91-1.201-5.692-1.127-2.585-.743-5.553 1.067-7.715 2.308-2.758 3.5-6.482 2.87-10.483-.862-5.495-5.305-9.929-10.8-10.785-4.2-.653-8.093.698-10.882 3.242A4.19 4.19 0 0 1 45 34.973a4.189 4.189 0 0 1-2.828-1.084c-2.79-2.544-6.682-3.895-10.882-3.242-5.496.856-9.938 5.29-10.801 10.785-.628 4 .562 7.725 2.871 10.483 1.81 2.163 2.194 5.13 1.067 7.715a14.183 14.183 0 0 0-1.201 5.693c0 9.62 9.748 17.42 21.774 17.42Z" fill="#FAEBC8"/><path d="M23.226 65.322c0 3.256 1.137 6.293 3.08 8.9a33.24 33.24 0 0 1-1.629-10.23 33.255 33.255 0 0 1 3.492-14.848c1.47-2.96 2.315-6.287 2.315-9.709 0-3.042.344-5.986.96-8.803-.051.008-.102.007-.154.015-5.496.856-9.938 5.29-10.801 10.785-.628 4 .563 7.724 2.871 10.482 1.81 2.163 2.194 5.13 1.067 7.715a14.181 14.181 0 0 0-1.201 5.693Z" fill="#F5DCB4"/><path d="M42.095 58.065c-.218 0-.439-.05-.647-.153l-2.904-1.452a1.452 1.452 0 1 1 1.299-2.597l2.903 1.451a1.452 1.452 0 0 1-.65 2.75ZM47.905 58.065a1.451 1.451 0 0 1-.65-2.75l2.902-1.452a1.452 1.452 0 0 1 1.299 2.597l-2.903 1.452c-.209.104-.43.153-.648.153Z" fill="#5D5360"/><path d="M32.048 63.871c-.879 0-1.572.78-1.45 1.65C31.5 71.957 37.604 76.936 45 76.936c7.396 0 13.5-4.979 14.401-11.415.122-.87-.57-1.65-1.45-1.65H32.049Z" fill="#4B3F4E"/><path d="M36.636 74.538C39 76.043 41.883 76.935 45 76.935c3.117 0 5.999-.892 8.364-2.397-1.048-3.633-4.405-6.313-8.364-6.313-3.959 0-7.316 2.68-8.364 6.313Z" fill="#E6646E"/><path d="M31.936 47.903a4.355 4.355 0 0 1-4.355-4.355v-1.451a4.355 4.355 0 0 1 8.71 0v1.451a4.355 4.355 0 0 1-4.355 4.355Z" fill="#4B3F4E"/><path d="M31.935 37.742v5.08a2.177 2.177 0 1 0 4.355 0v-.725a4.354 4.354 0 0 0-4.355-4.355Z" fill="#5D5360"/><path d="M31.936 42.098a1.452 1.452 0 1 0 0-2.904 1.452 1.452 0 0 0 0 2.904Z" fill="#fff"/><path d="M58.065 47.903a4.355 4.355 0 0 1-4.355-4.355v-1.451a4.355 4.355 0 0 1 8.71 0v1.451a4.355 4.355 0 0 1-4.355 4.355Z" fill="#4B3F4E"/><path d="M58.065 37.742v5.08a2.177 2.177 0 1 0 4.355 0v-.725a4.355 4.355 0 0 0-4.355-4.355Z" fill="#5D5360"/><path d="M58.064 42.098a1.452 1.452 0 1 0 0-2.904 1.452 1.452 0 0 0 0 2.904Z" fill="#fff"/><path d="M45 76.935c.49 0 .973-.03 1.452-.073v-2.83a1.451 1.451 0 1 0-2.904 0v2.83c.478.044.961.073 1.452.073Z" fill="#FF8087"/></svg>