<svg width="70" height="70" viewBox="0 0 90 90" fill="none" xmlns="http://www.w3.org/2000/svg"><g clip-path="url(#a)"><path d="M35 78.57c-.79 0-1.428.64-1.428 1.43v.227c0 .738-.575 1.363-1.31 1.424l-12.645 1.054a4.28 4.28 0 0 0-3.71 2.915l-.833 2.499a1.429 1.429 0 0 0 2.71.904l.832-2.499a1.428 1.428 0 0 1 1.238-.971l.86-.072v3.09a1.428 1.428 0 1 0 2.858 0v-3.328l1.626-.136 1.305 3.916a1.428 1.428 0 1 0 2.709-.904l-1.085-3.256 4.372-.364c2.204-.184 3.93-2.06 3.93-4.271v-.229c0-.789-.64-1.428-1.429-1.428ZM55 78.57c.79 0 1.428.64 1.428 1.43v.227c0 .738.575 1.363 1.31 1.424l12.645 1.054a4.28 4.28 0 0 1 3.71 2.915l.833 2.499a1.429 1.429 0 0 1-2.71.904l-.832-2.499a1.428 1.428 0 0 0-1.238-.971l-.86-.072v3.09a1.428 1.428 0 1 1-2.858 0v-3.328l-1.626-.136-1.305 3.916a1.428 1.428 0 1 1-2.709-.904l1.085-3.256-4.372-.364c-2.204-.184-3.93-2.06-3.93-4.271v-.229c0-.789.64-1.428 1.429-1.428Z" fill="#EBAF4B"/><path d="M45 84.285c18.936 0 34.286-15.67 34.286-35s-15.35-35-34.286-35-34.286 15.67-34.286 35 15.35 35 34.286 35Z" fill="#824D51"/><path d="M45 81.429c12.623 0 22.857-13.752 22.857-30.715C67.857 33.752 57.623 20 45 20S22.143 33.752 22.143 50.715c0 16.962 10.234 30.714 22.857 30.714Z" fill="#C0826C"/><path d="m83.571 24.285-4.545 4.546c.165-1.023.26-2.061.26-3.117C79.285 11.513 63.935 0 45 0 26.065 0 10.715 11.513 10.715 25.714c0 1.056.094 2.095.26 3.117l-4.546-4.546S1.262 37.203.755 45.841c-.042.705.514 1.301 1.22 1.301H5v3.16c0 .644.5 1.177 1.143 1.22 3.336.223 13.476.543 23.784-2.71C29.286 48.571 45 41.428 45 41.428s14.285 7.143 15.072 7.384c10.309 3.253 20.449 2.932 23.785 2.71a1.223 1.223 0 0 0 1.142-1.22v-3.16h3.026c.706 0 1.262-.596 1.22-1.3-.507-8.639-5.674-21.556-5.674-21.556Z" fill="#965A50"/><path d="M78.903 11.019c4.86-2.725 6.58-6.53 7.19-8.882.234-.9-.638-1.667-1.515-1.36-10.96 3.848-28.809-1.7-37.765 13.47a2.095 2.095 0 0 1-3.625 0C34.23-.922 16.383 4.626 5.422.779c-.877-.308-1.749.459-1.515 1.36.61 2.35 2.331 6.156 7.19 8.881.84.471 1.007 1.597.32 2.272C6.915 17.71 4.353 24.1 5.142 31.07c1.102 9.73 8.93 17.614 18.654 18.773 9.025 1.075 17.1-3.469 21.204-10.59 4.105 7.121 12.18 11.665 21.204 10.59 9.724-1.159 17.552-9.043 18.654-18.773.789-6.97-1.773-13.358-6.275-17.78-.687-.674-.52-1.8.32-2.271Z" fill="#AF6E5A"/><path d="M26.429 42.857c7.89 0 14.286-6.396 14.286-14.286s-6.397-14.285-14.286-14.285c-7.89 0-14.286 6.396-14.286 14.285 0 7.89 6.396 14.286 14.286 14.286Z" fill="#EBAF4B"/><path d="M26.429 38.571c5.523 0 10-4.477 10-10 0-5.522-4.478-10-10-10-5.523 0-10 4.478-10 10 0 5.523 4.477 10 10 10Z" fill="#FFC850"/><path d="m45.936 50.36 2.84-7.57a2.258 2.258 0 0 0-.519-2.39l-1.237-1.237a2.857 2.857 0 0 0-4.04 0L41.742 40.4a2.258 2.258 0 0 0-.517 2.39l2.839 7.57c.324.865 1.548.865 1.872 0Z" fill="#EBAF4B"/><path d="M26.429 35.714A5.714 5.714 0 0 1 20.715 30v-2.858a5.714 5.714 0 0 1 11.428 0V30a5.714 5.714 0 0 1-5.714 5.714Z" fill="#4B3F4E"/><path d="M27.142 28.571a2.143 2.143 0 1 0 0-4.285 2.143 2.143 0 0 0 0 4.285Z" fill="#fff"/><path d="M63.571 42.857c7.89 0 14.286-6.396 14.286-14.286S71.46 14.286 63.57 14.286 49.286 20.682 49.286 28.57c0 7.89 6.395 14.286 14.285 14.286Z" fill="#EBAF4B"/><path d="M63.571 38.571c5.523 0 10-4.477 10-10 0-5.522-4.477-10-10-10s-10 4.478-10 10c0 5.523 4.477 10 10 10Z" fill="#FFC850"/><path d="M63.571 35.714A5.714 5.714 0 0 1 57.857 30v-2.858a5.714 5.714 0 0 1 11.428 0V30a5.714 5.714 0 0 1-5.714 5.714Z" fill="#4B3F4E"/><path d="M64.285 28.571a2.143 2.143 0 1 0 0-4.285 2.143 2.143 0 0 0 0 4.285Z" fill="#fff"/></g><defs><clipPath id="a"><path fill="#fff" d="M0 0h90v90H0z"/></clipPath></defs></svg>