<svg width="70" height="70" viewBox="0 0 90 90" fill="none" xmlns="http://www.w3.org/2000/svg"><path d="M90 1.976s-1.45 25.311-18.87 29.666L58.066 17.126C62.42 11.319 74.793-.014 90 1.976Z" fill="#FF96A0"/><path d="m71.13 31.642-6.942-7.713c2.587-8.255 14.2-19.868 25.56-19.571-.86 6.404-4.477 23.749-18.618 27.284Z" fill="#E6646E"/><path d="M0 1.976s1.45 25.311 18.87 29.666l13.064-14.516C27.58 11.319 15.206-.014 0 1.976Z" fill="#FF96A0"/><path d="m18.87 31.642 6.942-7.713C23.225 15.674 11.612 4.06.251 4.358c.86 6.404 4.478 23.749 18.619 27.284Z" fill="#E6646E"/><path d="M81.29 56.32c0 17.638-16.248 31.936-36.29 31.936-20.044 0-36.292-14.298-36.292-31.936 0-20.323 16.248-43.55 36.291-43.55 20.043 0 36.291 23.227 36.291 43.55Z" fill="#FFAAB4"/><path d="M32.564 70.997c1.562 4.975 5.859 8.55 10.914 8.55h3.042c5.11 0 9.444-3.652 10.964-8.71l-24.92.16Z" fill="#DC4655"/><path d="M61.316 65.476c0 9.314-11.414 6.37-16.304 6.37-4.788 0-16.297 2.944-16.297-6.37 0-9.513 7.289-16.19 16.291-16.19s16.31 6.677 16.31 16.19Z" fill="#E6646E"/><path d="M21.29 56.841c0-17.265 9.874-36.449 23.723-44.07h-.014c-20.043 0-36.29 23.226-36.29 43.55 0 16.643 14.47 30.307 32.942 31.795C29.594 82.457 21.29 70.58 21.29 56.84Z" fill="#FF96A0"/><path d="M41.584 64.08c.944-1.752.551-3.795-.876-4.564-1.427-.77-3.35.027-4.294 1.778-.944 1.752-.552 3.795.876 4.564 1.427.77 3.35-.027 4.294-1.778ZM48.419 64.08c.943 1.75 2.866 2.547 4.293 1.778 1.428-.77 1.82-2.813.876-4.564-.944-1.752-2.867-2.548-4.294-1.779-1.427.77-1.82 2.813-.875 4.564Z" fill="#A5465A"/><path d="M29.031 47.61a4.355 4.355 0 0 1-4.355-4.355v-1.451a4.355 4.355 0 1 1 8.71 0v1.451a4.355 4.355 0 0 1-4.355 4.355Z" fill="#4B3F4E"/><path d="M29.031 37.449v5.08a2.177 2.177 0 1 0 4.355 0v-.725a4.355 4.355 0 0 0-4.355-4.355Z" fill="#5D5360"/><path d="M29.032 41.804a1.452 1.452 0 1 0 0-2.903 1.452 1.452 0 0 0 0 2.903Z" fill="#fff"/><path d="M60.967 47.61a4.355 4.355 0 0 1-4.355-4.355v-1.451a4.355 4.355 0 0 1 8.71 0v1.451a4.355 4.355 0 0 1-4.355 4.355Z" fill="#4B3F4E"/><path d="M60.967 37.449v5.08a2.177 2.177 0 1 0 4.355 0v-.725a4.355 4.355 0 0 0-4.355-4.355Z" fill="#5D5360"/><path d="M60.968 41.804a1.452 1.452 0 1 0 0-2.903 1.452 1.452 0 0 0 0 2.903Z" fill="#fff"/></svg>