<svg width="70" height="70" viewBox="0 0 90 90" fill="none" xmlns="http://www.w3.org/2000/svg"><path d="M84.194 0s-.698 32.288-18.508 47.087L52.712 36.562C64.437 11.73 84.194 0 84.194 0Z" fill="#AEA8AF"/><path d="m65.685 47.087-5.745-4.661-.431-3.822C62.64 31.416 70.869 14.434 84.194 0c0 0-.698 32.288-18.509 47.087Z" fill="#9C969E"/><path d="M5.806 0s.698 32.288 18.508 47.087l12.974-10.525C25.563 11.73 5.806 0 5.806 0Z" fill="#AEA8AF"/><path d="m24.315 47.087 5.745-4.661.431-3.822C27.36 31.416 19.131 14.434 5.806 0c0 0 .698 32.288 18.509 47.087Z" fill="#9C969E"/><path d="M70.6 63.53c-1.566-2.722-2.497-5.727-2.384-8.827.007-.186.01-.372.01-.558 0-10.663-10.398-19.306-23.226-19.306-12.827 0-23.226 8.644-23.226 19.306 0 .186.004.372.01.558.113 3.1-.817 6.105-2.384 8.826-1.275 2.214-1.98 4.63-1.98 7.164C17.42 81.356 29.768 90 45 90c15.232 0 27.58-8.644 27.58-19.306 0-2.535-.705-4.95-1.98-7.165Z" fill="#C9C6CA"/><path d="M28.064 72.968c0-2.935.706-5.732 1.98-8.296 1.568-3.15 2.498-6.63 2.385-10.22-.006-.215-.01-.43-.01-.646 0-7.963 4.34-14.935 10.853-18.895-12.017.738-21.498 9.056-21.498 19.234 0 .186.004.372.01.558.113 3.1-.817 6.105-2.384 8.826-1.275 2.214-1.98 4.63-1.98 7.165 0 8.594 8.027 15.869 19.116 18.37-5.213-4.066-8.472-9.768-8.472-16.096Z" fill="#C0BCC1"/><path d="M31.935 68.226a4.355 4.355 0 0 1-4.354-4.355v-1.452a4.355 4.355 0 0 1 8.71 0v1.452a4.355 4.355 0 0 1-4.356 4.355Z" fill="#4B3F4E"/><path d="M31.935 58.065v5.08a2.177 2.177 0 0 0 4.355 0v-.726a4.355 4.355 0 0 0-4.355-4.354Z" fill="#5D5360"/><path d="M31.936 62.42a1.452 1.452 0 1 0 0-2.904 1.452 1.452 0 0 0 0 2.904Z" fill="#fff"/><path d="M58.065 68.226a4.355 4.355 0 0 1-4.355-4.355v-1.452a4.355 4.355 0 0 1 8.71 0v1.452a4.355 4.355 0 0 1-4.355 4.355Z" fill="#4B3F4E"/><path d="M58.065 58.065v5.08a2.177 2.177 0 0 0 4.354 0v-.726a4.355 4.355 0 0 0-4.354-4.354Z" fill="#5D5360"/><path d="M58.064 62.42a1.452 1.452 0 1 0 0-2.904 1.452 1.452 0 0 0 0 2.904Z" fill="#fff"/><path d="M58.065 72.58c-8.71-2.903-10.162-7.257-10.162-10.16 0-2.904-1.451-4.355-2.903-4.355-1.451 0-2.903 1.451-2.903 4.354 0 2.904-1.452 7.258-10.161 10.162-6.08 2.026-7.908 6.177-7.475 10.965C29.51 87.5 36.829 90 45 90c8.17 0 15.49-2.502 20.54-6.454.432-4.788-1.396-8.939-7.475-10.965Z" fill="#DBD9DC"/><path d="M49.924 88.064a7.516 7.516 0 0 1-4.723-1.666.328.328 0 0 0-.402 0 7.514 7.514 0 0 1-4.723 1.666c-2.598 0-5.012-1.333-6.456-3.566a1.452 1.452 0 0 1 2.438-1.576c.906 1.402 2.41 2.24 4.018 2.24a4.641 4.641 0 0 0 2.914-1.035 3.248 3.248 0 0 1 4.02 0 4.641 4.641 0 0 0 2.914 1.034c1.61 0 3.111-.837 4.018-2.24a1.452 1.452 0 0 1 2.438 1.576c-1.444 2.234-3.858 3.567-6.456 3.567Z" fill="#C0BCC1"/><path d="M45 72.58c3.654 0 6.616 2.156 6.616 4.815 0 2.564-2.78 3.915-4.787 4.913a4.07 4.07 0 0 1-3.658 0c-2.006-.998-4.787-2.349-4.787-4.913 0-2.659 2.962-4.814 6.616-4.814Z" fill="#FF96A0"/><path d="M46.48 81.695c-2.007-1.182-4.788-2.781-4.788-5.819 0-1.096.365-2.116.986-2.985-2.506.685-4.294 2.44-4.294 4.504 0 2.564 2.78 3.915 4.787 4.913a4.07 4.07 0 0 0 3.658 0l.498-.249a3.775 3.775 0 0 1-.848-.364Z" fill="#FF8087"/><path d="M36.536 89.065c-4.797-3.742-7.905-8.877-8.376-14.602-3.072 2.247-4.025 5.485-3.7 9.084l-.003.008c3.224 2.518 7.371 4.448 12.08 5.51Z" fill="#C9C6CA"/></svg>